<svg width="22" height="22" viewBox="0 0 22 22" fill="none" xmlns="http://www.w3.org/2000/svg">
<g clip-path="url(#clip0_105_237)">
<path d="M11 22C17.0751 22 22 17.0751 22 11C22 4.92487 17.0751 0 11 0C4.92487 0 0 4.92487 0 11C0 17.0751 4.92487 22 11 22Z" fill="#D80027"/>
<path d="M6.01992 6.69458L6.96953 9.61646H10.0418L7.5582 11.4254L8.50781 14.3473L6.01992 12.5426L3.53203 14.3473L4.48594 11.4254L1.99805 9.61646H5.07031L6.01992 6.69458Z" fill="#FFDA44"/>
<path d="M13.0412 17.0371L12.315 16.1434L11.2408 16.5602L11.8639 15.5934L11.1377 14.6953L12.2506 14.9918L12.8779 14.025L12.9381 15.1766L14.0553 15.4731L12.9768 15.8856L13.0412 17.0371Z" fill="#FFDA44"/>
<path d="M14.485 14.416L14.8287 13.316L13.8877 12.65L15.0393 12.6328L15.3787 11.5328L15.7525 12.6242L16.9041 12.6114L15.9803 13.2989L16.3498 14.3903L15.4088 13.7242L14.485 14.416Z" fill="#FFDA44"/>
<path d="M16.4311 8.07384L15.924 9.10939L16.749 9.9129L15.6104 9.74962L15.1033 10.7809L14.9057 9.6465L13.7627 9.48322L14.7854 8.94611L14.5877 7.80743L15.4127 8.61095L16.4311 8.07384Z" fill="#FFDA44"/>
<path d="M13.0715 4.93713L12.9855 6.0844L14.0555 6.51838L12.934 6.79338L12.8523 7.94495L12.2465 6.96526L11.125 7.24026L11.8684 6.3594L11.2582 5.38401L12.3281 5.81799L13.0715 4.93713Z" fill="#FFDA44"/>
</g>
<defs>
<clipPath id="clip0_105_237">
<rect width="22" height="22" fill="white"/>
</clipPath>
</defs>
</svg>
