<svg width="22" height="22" viewBox="0 0 22 22" fill="none" xmlns="http://www.w3.org/2000/svg">
<g clip-path="url(#clip0_105_258)">
<path d="M0.68457 14.8261C2.23879 19.0148 6.27077 22 11.0004 22C15.73 22 19.762 19.0148 21.3162 14.8261L11.0004 13.8696L0.68457 14.8261Z" fill="#FFDA44"/>
<path d="M11.0004 0C6.27077 0 2.23879 2.98513 0.68457 7.17393L11.0004 8.13042L21.3162 7.17389C19.762 2.98512 15.73 0 11.0004 0Z" fill="black"/>
<path d="M0.684191 7.17395C0.242043 8.3656 0 9.65449 0 11C0 12.3455 0.242043 13.6344 0.684191 14.8261H21.3159C21.758 13.6344 22 12.3455 22 11C22 9.65449 21.758 8.3656 21.3158 7.17395H0.684191Z" fill="#D80027"/>
</g>
<defs>
<clipPath id="clip0_105_258">
<rect width="22" height="22" fill="white"/>
</clipPath>
</defs>
</svg>
