<svg width="22" height="22" viewBox="0 0 22 22" fill="none" xmlns="http://www.w3.org/2000/svg">
<g clip-path="url(#clip0_105_241)">
<path d="M0 11C0 12.3455 0.242043 13.6344 0.684191 14.8261L11 15.7826L21.3158 14.8261C21.758 13.6344 22 12.3455 22 11C22 9.65448 21.758 8.36559 21.3158 7.17393L11 6.21741L0.684191 7.17393C0.242043 8.36559 0 9.65448 0 11H0Z" fill="#FFDA44"/>
<path d="M21.3162 7.17393C19.762 2.98517 15.73 0 11.0004 0C6.27077 0 2.23879 2.98517 0.68457 7.17393H21.3162Z" fill="#D80027"/>
<path d="M0.68457 14.826C2.23879 19.0148 6.27077 22 11.0004 22C15.73 22 19.762 19.0148 21.3162 14.826H0.68457Z" fill="#D80027"/>
</g>
<defs>
<clipPath id="clip0_105_241">
<rect width="22" height="22" fill="white"/>
</clipPath>
</defs>
</svg>
