<svg width="22" height="22" viewBox="0 0 22 22" fill="none" xmlns="http://www.w3.org/2000/svg">
<g clip-path="url(#clip0_105_254)">
<path d="M11 22C17.0751 22 22 17.0751 22 11C22 4.92487 17.0751 0 11 0C4.92487 0 0 4.92487 0 11C0 17.0751 4.92487 22 11 22Z" fill="#F0F0F0"/>
<path d="M22.0001 11C22.0001 6.2704 19.015 2.23843 14.8262 0.684204V21.3159C19.015 19.7616 22.0001 15.7296 22.0001 11Z" fill="#D80027"/>
<path d="M0 11C0 15.7296 2.98517 19.7616 7.17393 21.3158V0.684204C2.98517 2.23843 0 6.2704 0 11Z" fill="#0052B4"/>
</g>
<defs>
<clipPath id="clip0_105_254">
<rect width="22" height="22" fill="white"/>
</clipPath>
</defs>
</svg>
