<svg width="22" height="22" viewBox="0 0 22 22" fill="none" xmlns="http://www.w3.org/2000/svg">
<g clip-path="url(#clip0_105_250)">
<path d="M11 22C17.0751 22 22 17.0751 22 11C22 4.92487 17.0751 0 11 0C4.92487 0 0 4.92487 0 11C0 17.0751 4.92487 22 11 22Z" fill="#F0F0F0"/>
<path d="M14.826 11C14.826 11.9565 13.113 14.3478 10.9999 14.3478C8.88682 14.3478 7.17383 11.9565 7.17383 11C7.17383 8.8869 8.88682 7.17395 10.9999 7.17395C13.113 7.17395 14.826 8.8869 14.826 11Z" fill="#D80027"/>
<path d="M14.826 11C14.826 13.1131 13.113 14.8261 10.9999 14.8261C8.88682 14.8261 7.17383 13.1131 7.17383 11" fill="#0052B4"/>
<path d="M15.0547 14.382L16.0691 13.3676L16.7453 14.0438L15.731 15.0582L15.0547 14.382Z" fill="black"/>
<path d="M13.3643 16.0727L14.3786 15.0583L15.0549 15.7346L14.0405 16.749L13.3643 16.0727Z" fill="black"/>
<path d="M17.084 16.4106L18.0984 15.3963L18.7746 16.0725L17.7602 17.0869L17.084 16.4106Z" fill="black"/>
<path d="M15.3926 18.1016L16.407 17.0872L17.0832 17.7635L16.0688 18.7779L15.3926 18.1016Z" fill="black"/>
<path d="M16.0693 15.3964L17.0837 14.382L17.76 15.0583L16.7456 16.0727L16.0693 15.3964Z" fill="black"/>
<path d="M14.3789 17.0871L15.3933 16.0727L16.0696 16.749L15.0552 17.7634L14.3789 17.0871Z" fill="black"/>
<path d="M17.0889 7.61987L14.3838 4.91484L15.0601 4.23858L17.7651 6.94361L17.0889 7.61987Z" fill="black"/>
<path d="M14.3828 6.94391L13.3684 5.92953L14.0447 5.25329L15.059 6.26767L14.3828 6.94391Z" fill="black"/>
<path d="M16.0732 8.63495L15.0589 7.62057L15.7351 6.94433L16.7495 7.95871L16.0732 8.63495Z" fill="black"/>
<path d="M16.4111 4.91473L15.3968 3.90035L16.073 3.22409L17.0874 4.23847L16.4111 4.91473Z" fill="black"/>
<path d="M18.1035 6.60602L17.0891 5.59164L17.7654 4.91537L18.7798 5.92975L18.1035 6.60602Z" fill="black"/>
<path d="M3.89941 15.3945L6.60444 18.0995L5.92818 18.7758L3.22315 16.0707L3.89941 15.3945Z" fill="black"/>
<path d="M6.60449 16.0703L7.61887 17.0846L6.94264 17.7609L5.92826 16.7465L6.60449 16.0703Z" fill="black"/>
<path d="M4.91406 14.3799L5.92844 15.3943L5.25218 16.0705L4.2378 15.0561L4.91406 14.3799Z" fill="black"/>
<path d="M5.92773 13.3652L8.63276 16.0703L7.9565 16.7465L5.25147 14.0415L5.92773 13.3652Z" fill="black"/>
<path d="M6.60449 3.89825L3.89946 6.60328L3.2232 5.92702L5.92823 3.22199L6.60449 3.89825Z" fill="black"/>
<path d="M7.61914 4.91254L4.91411 7.61757L4.23785 6.9413L6.94288 4.23627L7.61914 4.91254Z" fill="black"/>
<path d="M8.63379 5.92755L5.92876 8.63258L5.25253 7.95635L7.95755 5.25132L8.63379 5.92755Z" fill="black"/>
</g>
<defs>
<clipPath id="clip0_105_250">
<rect width="22" height="22" fill="white"/>
</clipPath>
</defs>
</svg>
