<svg width="512" height="512" viewBox="0 0 512 512" fill="none" xmlns="http://www.w3.org/2000/svg">
<g clip-path="url(#clip0_1232_6811)">
<path d="M0 255.999C0 366.069 69.472 459.904 166.955 496.075L189.217 255.998L166.955 15.9219C69.472 52.0939 0 145.928 0 255.999Z" fill="#6DA544"/>
<path d="M511.998 256C511.998 114.616 397.382 0 255.998 0C224.684 0 194.687 5.633 166.953 15.923V496.077C194.687 506.368 224.684 512 255.998 512C397.382 512 511.998 397.384 511.998 256Z" fill="#D80027"/>
<path d="M166.957 345.043C216.134 345.043 256 305.177 256 256C256 206.823 216.134 166.957 166.957 166.957C117.78 166.957 77.9141 206.823 77.9141 256C77.9141 305.177 117.78 345.043 166.957 345.043Z" fill="#FFDA44"/>
<path d="M116.871 211.477V267.129C116.871 294.791 139.295 317.216 166.958 317.216C194.621 317.216 217.045 294.792 217.045 267.129V211.477H116.871Z" fill="#D80027"/>
<path d="M166.958 283.827C157.752 283.827 150.262 276.337 150.262 267.131V244.871H183.653V267.132C183.653 276.337 176.163 283.827 166.958 283.827Z" fill="#F0F0F0"/>
</g>
<defs>
<clipPath id="clip0_1232_6811">
<rect width="512" height="512" fill="white"/>
</clipPath>
</defs>
</svg>
