<svg width="22" height="22" viewBox="0 0 22 22" fill="none" xmlns="http://www.w3.org/2000/svg">
<g clip-path="url(#clip0_105_246)">
<path d="M11 22C17.0751 22 22 17.0751 22 11C22 4.92487 17.0751 0 11 0C4.92487 0 0 4.92487 0 11C0 17.0751 4.92487 22 11 22Z" fill="#D80027"/>
<path d="M10.5496 8.98846L11.4521 10.2322L12.9138 9.75825L12.0098 11.0009L12.9123 12.2446L11.4511 11.7688L10.5472 13.0115L10.5481 11.4749L9.08691 10.9991L10.5486 10.5252L10.5496 8.98846Z" fill="#F0F0F0"/>
<path d="M8.08617 14.1087C6.36931 14.1087 4.97747 12.7169 4.97747 11C4.97747 9.28314 6.36931 7.8913 8.08617 7.8913C8.62147 7.8913 9.12515 8.02669 9.56489 8.26495C8.87503 7.59026 7.93157 7.17389 6.89052 7.17389C4.7774 7.17389 3.06445 8.88688 3.06445 11C3.06445 13.113 4.77745 14.826 6.89052 14.826C7.93165 14.826 8.87507 14.4096 9.56489 13.735C9.12515 13.9733 8.62147 14.1087 8.08617 14.1087Z" fill="#F0F0F0"/>
</g>
<defs>
<clipPath id="clip0_105_246">
<rect width="22" height="22" fill="white"/>
</clipPath>
</defs>
</svg>
