<svg width="200" height="200" viewBox="0 0 200 200" fill="none" xmlns="http://www.w3.org/2000/svg">
<g clip-path="url(#clip0_31013_1087)">
<path d="M0 100C0 155.228 44.7715 200 100 200C155.228 200 200 155.228 200 100C200 44.7715 155.228 0 100 0C44.7715 0 0 44.7715 0 100Z" fill="black"/>
<path d="M133.937 114.116V73H142.252V114.116H133.937Z" fill="#F7A600"/>
<path d="M37.7256 126.359H20V85.2432H36.9947C45.2179 85.2432 50.0605 89.7203 50.0605 96.7557C50.0605 101.324 46.9539 104.248 44.8524 105.253C47.4108 106.441 50.7001 108.999 50.7001 114.481C50.7001 122.156 45.3093 126.268 37.7256 126.268V126.359ZM36.3551 92.4613H28.2232V101.964H36.3551C39.8271 101.964 41.8373 100.045 41.8373 97.2125C41.8373 94.3801 39.8271 92.4613 36.3551 92.4613ZM36.9033 109.182H28.3146V119.324H36.9033C40.6495 119.324 42.4768 117.04 42.4768 114.207C42.4768 111.466 40.6495 109.182 36.9947 109.182H36.9033Z" fill="white"/>
<path d="M75.8259 109.456V126.359H67.6027V109.456L54.9023 85.2432H63.9479L71.8057 101.781L79.572 85.2432H88.5262L75.8259 109.456Z" fill="white"/>
<path d="M112.009 126.359H94.2832V85.2432H111.278C119.501 85.2432 124.344 89.7203 124.344 96.7557C124.344 101.324 121.237 104.248 119.136 105.253C121.694 106.441 124.983 108.999 124.983 114.481C124.983 122.156 119.592 126.268 112.009 126.268V126.359ZM110.638 92.4613H102.598V101.964H110.638C114.11 101.964 116.12 100.045 116.12 97.2125C116.12 94.3801 114.11 92.4613 110.638 92.4613ZM111.187 109.182H102.598V119.324H111.187C114.933 119.324 116.76 117.04 116.76 114.207C116.76 111.466 114.933 109.182 111.187 109.182Z" fill="white"/>
<path d="M168.841 92.37V126.359H160.618V92.37H149.562V85.2432H179.897V92.37H168.841Z" fill="white"/>
</g>
<defs>
<clipPath id="clip0_31013_1087">
<rect width="200" height="200" fill="white"/>
</clipPath>
</defs>
</svg>
