<svg width="22" height="20" viewBox="0 0 22 20" fill="none" xmlns="http://www.w3.org/2000/svg">
<path d="M17.1875 0C17.4677 0 17.7303 0.126927 17.9028 0.340546L17.9711 0.437291L21.8669 6.80092C22.051 7.10164 22.0421 7.47719 21.8529 7.76683L21.7831 7.85992L11.6998 19.6781C11.3581 20.0787 10.7541 20.1054 10.3773 19.7583L10.3002 19.6781L0.216904 7.85992C-0.0122539 7.59137 -0.0624963 7.2191 0.0788812 6.90373L0.13312 6.80092L4.02895 0.437291C4.17439 0.199718 4.42 0.0431 4.6937 0.00765454L4.81251 0H17.1875ZM14.2221 8.18183H7.777L10.9991 16.0655L14.2221 8.18183ZM19.107 8.18183H16.2003L13.5263 14.7227L19.107 8.18183ZM5.79884 8.18183H2.89209L8.47184 14.7209L5.79884 8.18183ZM7.0345 1.81818H5.32676L2.54375 6.36364H5.72459L7.0345 1.81818ZM13.0588 1.81818H8.94025L7.63034 6.36364H14.3688L13.0588 1.81818ZM16.6723 1.81818H14.9646L16.2745 6.36364H19.4553L16.6723 1.81818Z" fill="white"/>
</svg>
